<svg width="96" height="96" xmlns="http://www.w3.org/2000/svg" xmlns:xlink="http://www.w3.org/1999/xlink" xml:space="preserve" overflow="hidden"><g transform="translate(-122 -264)"><path d="M186 294C186 302.837 178.837 310 170 310 161.163 310 154 302.837 154 294 154 285.163 161.163 278 170 278 178.837 278 186 285.163 186 294Z" fill="#FFFFFF"/><path d="M202 346 202 330C202 327.6 200.8 325.2 198.8 323.6 194.4 320 188.8 317.6 183.2 316 179.2 314.8 174.8 314 170 314 165.6 314 161.2 314.8 156.8 316 151.2 317.6 145.6 320.4 141.2 323.6 139.2 325.2 138 327.6 138 330L138 346 202 346Z" fill="#FFFFFF"/></g></svg>